<svg id="svg" version="1.1" xmlns="http://www.w3.org/2000/svg" xmlns:xlink="http://www.w3.org/1999/xlink" width="400" height="680.6763285024155" viewBox="0, 0, 400,680.6763285024155"><g id="svgg"><path id="path0" d="M171.020 661.514 C 177.105 667.191,180.792 670.305,182.242 670.993 C 190.986 675.143,212.701 674.700,218.734 670.248 C 220.115 669.230,230.406 659.956,231.149 659.062 C 231.495 658.644,225.599 658.548,199.708 658.548 L 167.840 658.548 171.020 661.514 " stroke="none" fill="#fbfbfb" fill-rule="evenodd"></path><path id="path1" d="M174.600 0.431 C 165.240 0.954,153.048 2.014,152.200 2.378 C 151.760 2.567,148.610 3.023,145.200 3.392 C 141.790 3.760,138.190 4.240,137.200 4.458 C 136.210 4.676,133.150 5.208,130.400 5.639 C 127.650 6.070,125.040 6.588,124.600 6.789 C 124.160 6.990,121.190 7.552,118.000 8.037 C 114.810 8.522,112.110 9.038,112.000 9.184 C 111.890 9.329,109.370 9.866,106.400 10.376 C 103.430 10.887,100.910 11.428,100.800 11.578 C 100.690 11.728,98.530 12.271,96.000 12.786 C 93.470 13.301,91.310 13.835,91.200 13.973 C 91.090 14.111,89.200 14.650,87.000 15.172 C 84.800 15.694,82.730 16.272,82.400 16.456 C 82.070 16.640,80.270 17.168,78.400 17.629 C 76.530 18.091,74.820 18.603,74.600 18.768 C 74.380 18.933,72.940 19.396,71.400 19.798 C 69.860 20.199,68.510 20.650,68.400 20.801 C 68.290 20.951,66.670 21.481,64.800 21.978 C 62.930 22.476,61.220 23.026,61.000 23.200 C 60.780 23.374,59.250 23.914,57.600 24.400 C 55.950 24.886,54.420 25.420,54.200 25.588 C 53.980 25.755,52.540 26.293,51.000 26.782 C 49.460 27.272,48.020 27.821,47.800 28.002 C 47.580 28.184,46.230 28.734,44.800 29.225 C 43.370 29.716,42.110 30.248,42.000 30.405 C 41.890 30.563,41.350 30.820,40.800 30.977 C 38.651 31.590,24.167 38.800,23.600 39.539 C 23.490 39.683,22.590 40.236,21.600 40.769 C 20.610 41.302,19.656 41.977,19.480 42.269 C 19.304 42.561,18.975 42.800,18.748 42.800 C 18.187 42.800,11.448 48.549,10.417 49.908 C 9.366 51.292,7.995 52.987,7.122 53.983 C 6.341 54.874,3.943 59.539,3.206 61.600 C 2.931 62.370,2.470 63.540,2.182 64.200 C 0.545 67.950,0.200 72.423,0.206 89.800 C 0.212 107.737,0.896 117.433,2.405 121.000 C 2.592 121.440,3.044 123.240,3.412 125.000 C 3.779 126.760,4.320 128.740,4.613 129.400 C 4.906 130.060,5.460 131.770,5.844 133.200 C 6.228 134.630,6.663 135.890,6.812 136.000 C 6.960 136.110,7.492 137.460,7.994 139.000 C 8.496 140.540,9.060 141.996,9.248 142.235 C 9.436 142.474,9.840 143.380,10.146 144.248 C 10.453 145.116,11.265 147.028,11.952 148.497 C 12.638 149.965,13.200 151.341,13.200 151.555 C 13.200 151.768,13.436 152.181,13.723 152.471 C 14.011 152.762,14.674 154.035,15.197 155.300 C 15.720 156.565,16.254 157.600,16.386 157.600 C 16.517 157.600,16.973 158.500,17.400 159.600 C 17.827 160.700,18.286 161.600,18.420 161.600 C 18.554 161.600,19.097 162.545,19.627 163.700 C 20.158 164.855,20.705 165.890,20.843 166.000 C 20.981 166.110,21.455 166.920,21.896 167.800 C 23.092 170.186,25.312 174.172,25.572 174.400 C 25.698 174.510,26.236 175.500,26.768 176.600 C 27.300 177.700,27.852 178.690,27.995 178.800 C 28.138 178.910,28.662 179.810,29.160 180.800 C 29.657 181.790,30.770 183.770,31.632 185.200 C 32.494 186.630,33.489 188.475,33.843 189.300 C 34.197 190.125,34.625 190.800,34.794 190.800 C 34.963 190.800,35.506 191.745,36.001 192.900 C 36.496 194.055,37.022 195.090,37.171 195.200 C 37.320 195.310,37.860 196.390,38.371 197.600 C 38.882 198.810,39.425 199.890,39.578 200.000 C 39.730 200.110,40.167 201.010,40.548 202.000 C 42.550 207.197,43.761 209.200,44.900 209.200 C 45.995 209.200,46.000 209.212,46.000 212.005 C 46.000 213.548,46.161 215.123,46.358 215.505 C 46.555 215.887,46.898 217.411,47.121 218.892 C 47.343 220.372,48.067 222.712,48.728 224.092 C 49.389 225.471,50.160 227.680,50.441 229.000 C 50.721 230.320,51.063 231.490,51.200 231.600 C 51.337 231.710,51.868 233.690,52.379 236.000 C 52.890 238.310,53.444 240.380,53.610 240.600 C 53.777 240.820,54.216 242.440,54.588 244.200 C 54.959 245.960,55.498 248.030,55.786 248.800 C 56.074 249.570,56.619 251.730,56.997 253.600 C 57.375 255.470,57.820 257.180,57.987 257.400 C 58.154 257.620,58.709 259.870,59.220 262.400 C 59.731 264.930,60.266 267.090,60.407 267.200 C 60.549 267.310,61.072 269.470,61.570 272.000 C 62.069 274.530,62.616 276.780,62.787 277.000 C 62.959 277.220,63.507 279.650,64.005 282.400 C 64.504 285.150,65.035 287.490,65.186 287.600 C 65.337 287.710,65.784 289.690,66.179 292.000 C 66.573 294.310,67.139 296.918,67.435 297.796 C 67.731 298.674,68.283 301.194,68.663 303.396 C 69.042 305.598,69.468 307.490,69.610 307.600 C 69.751 307.710,70.269 310.230,70.760 313.200 C 71.252 316.170,71.811 318.960,72.004 319.400 C 72.197 319.840,72.735 322.630,73.200 325.600 C 73.665 328.570,74.207 331.360,74.405 331.800 C 74.603 332.240,75.141 335.120,75.600 338.200 C 76.059 341.280,76.594 344.160,76.789 344.600 C 76.983 345.040,77.546 348.280,78.039 351.800 C 78.531 355.320,79.053 358.290,79.198 358.400 C 79.343 358.510,79.787 361.210,80.183 364.400 C 80.580 367.590,81.038 370.380,81.202 370.600 C 81.365 370.820,81.891 374.240,82.371 378.200 C 82.851 382.160,83.403 385.760,83.598 386.200 C 83.793 386.640,84.337 390.600,84.806 395.000 C 85.275 399.400,85.815 403.360,86.007 403.800 C 86.199 404.240,86.822 408.650,87.391 413.600 C 89.643 433.203,90.656 441.427,90.888 442.000 C 91.022 442.330,91.517 446.609,91.989 451.508 C 92.461 456.407,93.004 460.907,93.195 461.508 C 93.386 462.109,93.834 465.930,94.192 470.000 C 94.549 474.070,94.999 477.760,95.192 478.200 C 95.385 478.640,95.948 483.320,96.443 488.600 C 96.938 493.880,97.491 498.260,97.671 498.333 C 97.852 498.407,98.000 499.025,98.000 499.708 C 98.000 502.327,99.692 515.807,100.037 515.933 C 100.237 516.007,100.400 516.376,100.400 516.753 C 100.400 517.572,101.150 518.400,101.892 518.400 C 102.528 518.400,110.800 526.505,110.800 527.127 C 110.800 527.365,111.050 527.704,111.355 527.880 C 112.966 528.809,116.449 535.050,117.449 538.800 C 117.830 540.230,118.258 541.490,118.401 541.600 C 118.694 541.827,119.837 547.183,120.236 550.200 C 120.382 551.300,120.639 552.380,120.809 552.600 C 121.166 553.065,122.319 562.805,122.676 568.375 C 122.811 570.479,123.041 572.290,123.187 572.400 C 123.682 572.773,124.821 602.141,124.810 614.286 L 124.800 626.371 126.961 628.686 C 129.584 631.496,132.440 634.538,137.314 639.714 C 143.415 646.192,151.239 654.036,154.412 656.855 C 158.231 660.248,167.546 668.415,168.493 669.200 C 168.891 669.530,169.901 670.430,170.739 671.200 C 173.769 673.985,176.531 676.201,177.555 676.668 C 178.130 676.931,179.410 677.499,180.400 677.932 C 187.476 681.023,212.278 681.062,219.014 677.993 C 219.972 677.557,220.930 677.200,221.142 677.200 C 221.643 677.200,225.848 673.901,229.045 671.000 C 229.772 670.340,230.885 669.350,231.519 668.800 C 233.011 667.503,237.524 663.542,240.405 661.000 C 241.651 659.900,243.529 658.280,244.577 657.400 C 245.625 656.520,247.049 655.259,247.741 654.599 C 248.434 653.938,249.855 652.701,250.900 651.850 C 251.945 651.000,252.800 650.136,252.800 649.931 C 252.800 649.726,254.285 648.061,256.100 646.231 C 259.596 642.705,272.371 629.408,274.166 627.426 C 274.750 626.780,275.134 626.006,275.019 625.705 C 274.408 624.114,276.076 568.861,276.748 568.419 C 276.931 568.298,277.202 566.670,277.350 564.800 C 277.839 558.644,278.813 550.614,279.170 549.800 C 279.363 549.360,279.834 547.380,280.218 545.400 C 280.601 543.420,281.057 541.616,281.231 541.391 C 281.405 541.166,281.900 539.726,282.332 538.191 C 283.120 535.387,283.551 534.418,284.995 532.200 C 286.179 530.382,288.162 527.817,288.500 527.667 C 288.665 527.593,288.800 527.323,288.801 527.067 C 288.801 526.810,290.588 524.847,292.772 522.705 C 294.956 520.563,296.870 518.411,297.024 517.924 C 297.179 517.436,297.534 516.809,297.814 516.529 C 298.094 516.249,298.620 514.261,298.984 512.110 C 299.348 509.960,299.801 507.911,299.990 507.559 C 300.179 507.206,300.721 503.786,301.195 499.959 C 301.669 496.131,302.211 492.640,302.401 492.200 C 302.590 491.760,303.132 487.710,303.606 483.200 C 304.079 478.690,304.623 474.640,304.814 474.200 C 305.005 473.760,305.474 470.160,305.856 466.200 C 306.237 462.240,306.667 458.910,306.811 458.800 C 306.954 458.690,307.474 454.460,307.965 449.400 C 308.456 444.340,309.015 439.840,309.207 439.400 C 309.400 438.960,309.939 434.640,310.405 429.800 C 310.872 424.960,311.410 420.640,311.601 420.200 C 311.792 419.760,312.331 415.440,312.800 410.600 C 313.269 405.760,313.810 401.440,314.004 401.000 C 314.198 400.560,314.758 396.420,315.248 391.800 C 315.739 387.180,316.253 383.310,316.389 383.200 C 316.526 383.090,317.059 379.580,317.575 375.400 C 318.090 371.220,318.634 367.710,318.784 367.600 C 318.934 367.490,319.377 364.880,319.769 361.800 C 320.161 358.720,320.623 356.020,320.795 355.800 C 320.967 355.580,321.520 352.430,322.023 348.800 C 322.526 345.170,323.058 342.110,323.205 342.000 C 323.352 341.890,323.895 339.010,324.410 335.600 C 324.926 332.190,325.464 329.310,325.605 329.200 C 325.747 329.090,326.263 326.480,326.752 323.400 C 327.241 320.320,327.799 317.440,327.992 317.000 C 328.186 316.560,328.740 313.860,329.223 311.000 C 329.707 308.140,330.230 305.620,330.385 305.400 C 330.541 305.180,330.998 303.110,331.400 300.800 C 331.802 298.490,332.260 296.420,332.417 296.200 C 332.574 295.980,333.111 293.550,333.610 290.800 C 334.109 288.050,334.653 285.620,334.818 285.400 C 334.983 285.180,335.520 282.840,336.011 280.200 C 336.501 277.560,337.043 275.220,337.214 275.000 C 337.384 274.780,337.931 272.530,338.430 270.000 C 338.928 267.470,339.452 265.310,339.595 265.200 C 339.738 265.090,340.276 262.930,340.791 260.400 C 341.307 257.870,341.856 255.620,342.013 255.400 C 342.169 255.180,342.600 253.560,342.969 251.800 C 343.339 250.040,343.807 248.240,344.008 247.800 C 344.209 247.360,344.751 245.290,345.212 243.200 C 345.673 241.110,346.217 239.040,346.422 238.600 C 346.627 238.160,347.163 236.180,347.612 234.200 C 348.062 232.220,348.585 230.240,348.774 229.800 C 348.963 229.360,349.508 227.743,349.987 226.206 C 350.465 224.670,351.015 223.314,351.210 223.194 C 351.916 222.757,352.830 218.101,353.074 213.700 C 353.318 209.276,353.339 209.200,354.290 209.200 C 355.502 209.200,356.015 208.667,356.982 206.400 C 357.405 205.410,357.953 204.330,358.200 204.000 C 358.447 203.670,358.987 202.590,359.400 201.600 C 359.813 200.610,360.353 199.530,360.600 199.200 C 360.847 198.870,361.394 197.790,361.814 196.800 C 362.234 195.810,362.694 194.910,362.837 194.800 C 362.979 194.690,363.614 193.636,364.248 192.459 C 364.881 191.281,365.888 189.481,366.484 188.459 C 367.080 187.436,367.940 185.842,368.395 184.917 C 368.850 183.991,369.386 183.132,369.586 183.009 C 369.785 182.886,370.411 181.843,370.977 180.692 C 372.393 177.812,374.127 174.641,374.418 174.400 C 374.551 174.290,375.623 172.400,376.800 170.200 C 377.977 168.000,379.064 166.110,379.216 166.000 C 379.368 165.890,379.614 165.409,379.763 164.930 C 379.913 164.452,380.441 163.462,380.937 162.730 C 381.433 161.999,382.190 160.546,382.619 159.501 C 383.049 158.457,383.508 157.602,383.640 157.601 C 383.772 157.601,384.309 156.520,384.833 155.200 C 385.357 153.880,385.902 152.800,386.044 152.800 C 386.186 152.800,386.718 151.675,387.226 150.300 C 387.734 148.925,388.272 147.710,388.421 147.600 C 388.571 147.490,389.112 146.230,389.624 144.800 C 390.136 143.370,390.674 142.110,390.818 142.000 C 390.963 141.890,391.492 140.540,391.994 139.000 C 392.496 137.460,393.046 136.020,393.215 135.800 C 393.385 135.580,393.823 134.320,394.187 133.000 C 394.551 131.680,395.016 130.240,395.220 129.800 C 395.715 128.730,396.679 124.882,397.017 122.624 C 397.168 121.621,397.420 120.800,397.578 120.800 C 399.253 120.800,400.724 87.624,399.592 75.400 C 399.100 70.100,398.036 64.000,397.603 64.000 C 397.430 64.000,397.174 63.389,397.035 62.643 C 396.724 60.989,393.707 54.800,393.211 54.800 C 393.014 54.800,392.730 54.409,392.578 53.932 C 392.176 52.665,383.882 44.525,381.400 42.962 C 380.740 42.546,380.020 42.061,379.800 41.884 C 378.847 41.117,374.572 38.422,374.291 38.411 C 374.122 38.405,373.312 37.962,372.491 37.426 C 371.671 36.891,370.190 36.138,369.200 35.754 C 368.210 35.369,367.310 34.927,367.200 34.770 C 366.895 34.335,358.878 30.800,358.197 30.800 C 357.869 30.800,357.600 30.637,357.600 30.437 C 357.600 30.238,356.565 29.762,355.300 29.380 C 354.035 28.998,352.615 28.450,352.144 28.162 C 351.673 27.874,350.053 27.246,348.544 26.765 C 347.035 26.285,345.620 25.755,345.400 25.588 C 345.180 25.420,343.650 24.886,342.000 24.400 C 340.350 23.914,338.820 23.372,338.600 23.195 C 338.380 23.019,336.760 22.462,335.000 21.959 C 333.240 21.455,331.710 20.927,331.600 20.785 C 331.490 20.644,330.140 20.213,328.600 19.828 C 327.060 19.443,325.350 18.898,324.800 18.618 C 324.250 18.337,322.450 17.789,320.800 17.399 C 319.150 17.010,317.620 16.560,317.400 16.401 C 317.180 16.242,315.290 15.715,313.200 15.231 C 311.110 14.747,309.109 14.195,308.753 14.005 C 308.398 13.815,306.238 13.278,303.953 12.811 C 301.669 12.343,299.522 11.812,299.183 11.629 C 298.844 11.446,296.234 10.877,293.383 10.363 C 290.532 9.849,288.110 9.313,288.000 9.171 C 287.890 9.029,285.100 8.501,281.800 7.997 C 278.500 7.493,275.620 6.946,275.400 6.783 C 275.180 6.619,272.750 6.186,270.000 5.820 C 267.250 5.454,264.702 4.995,264.338 4.798 C 263.974 4.602,260.284 4.054,256.138 3.581 C 251.992 3.108,248.240 2.567,247.800 2.379 C 246.929 2.005,235.123 1.025,224.000 0.403 C 215.916 -0.049,182.862 -0.030,174.600 0.431 M224.600 7.146 C 239.966 8.277,246.673 8.880,247.400 9.196 C 247.840 9.387,251.613 9.938,255.785 10.421 C 259.957 10.904,263.647 11.452,263.985 11.638 C 264.645 12.002,274.575 13.600,276.172 13.600 C 276.701 13.600,277.193 13.748,277.267 13.929 C 277.340 14.110,280.010 14.666,283.200 15.164 C 286.390 15.663,289.180 16.211,289.400 16.383 C 289.620 16.554,291.957 17.091,294.594 17.577 C 297.231 18.062,299.571 18.608,299.794 18.791 C 300.017 18.974,301.820 19.441,303.800 19.829 C 305.780 20.216,307.490 20.651,307.600 20.795 C 307.710 20.938,309.600 21.477,311.800 21.991 C 314.000 22.506,315.984 23.066,316.209 23.237 C 316.434 23.408,318.234 23.949,320.209 24.440 C 322.184 24.930,323.890 25.449,324.000 25.593 C 324.110 25.736,325.730 26.275,327.600 26.791 C 329.470 27.307,331.180 27.863,331.400 28.027 C 331.620 28.192,333.240 28.738,335.000 29.241 C 336.760 29.745,338.290 30.268,338.400 30.403 C 338.641 30.698,344.018 32.400,344.711 32.400 C 344.980 32.400,345.200 32.552,345.200 32.737 C 345.200 32.922,345.965 33.300,346.900 33.577 C 347.835 33.854,349.515 34.496,350.633 35.004 C 351.751 35.512,353.416 36.152,354.333 36.427 C 355.250 36.702,356.000 37.059,356.000 37.220 C 356.000 37.381,356.443 37.624,356.984 37.760 C 357.525 37.896,359.494 38.726,361.360 39.604 C 363.225 40.482,364.929 41.200,365.147 41.200 C 365.365 41.200,365.781 41.434,366.071 41.721 C 366.362 42.007,367.500 42.670,368.600 43.193 C 369.700 43.717,370.690 44.261,370.800 44.402 C 370.910 44.544,371.809 45.096,372.798 45.630 C 373.787 46.163,374.943 46.913,375.368 47.295 C 375.793 47.678,376.469 48.095,376.871 48.222 C 377.272 48.350,377.600 48.617,377.600 48.817 C 377.600 49.016,378.095 49.441,378.700 49.761 C 380.472 50.698,386.156 56.432,387.133 58.269 C 387.387 58.747,387.824 59.377,388.104 59.669 C 388.385 59.961,388.909 60.920,389.268 61.800 C 389.628 62.680,390.303 64.341,390.769 65.492 C 393.986 73.443,394.441 96.580,391.746 115.196 C 391.412 117.504,390.998 119.574,390.827 119.796 C 390.656 120.018,390.109 122.000,389.613 124.200 C 389.116 126.400,388.567 128.380,388.392 128.600 C 388.217 128.820,387.662 130.440,387.159 132.200 C 386.655 133.960,386.122 135.490,385.975 135.600 C 385.827 135.710,385.298 137.015,384.799 138.500 C 384.300 139.985,383.765 141.200,383.609 141.200 C 383.454 141.200,383.101 141.965,382.824 142.900 C 382.548 143.835,381.990 145.230,381.584 146.000 C 381.178 146.770,379.998 149.200,378.960 151.400 C 377.923 153.600,376.929 155.496,376.753 155.614 C 376.576 155.732,376.039 156.722,375.559 157.814 C 375.079 158.906,374.572 159.890,374.432 160.000 C 374.292 160.110,373.829 160.991,373.402 161.959 C 372.975 162.926,372.439 163.916,372.211 164.159 C 371.984 164.401,371.362 165.545,370.830 166.700 C 370.298 167.855,369.726 168.800,369.559 168.800 C 369.391 168.800,369.141 169.156,369.003 169.591 C 368.865 170.027,367.592 172.390,366.176 174.842 C 364.759 177.294,363.600 179.445,363.600 179.622 C 363.600 179.798,363.366 180.181,363.079 180.471 C 362.793 180.762,362.130 181.900,361.607 183.000 C 361.083 184.100,360.531 185.090,360.380 185.200 C 360.229 185.310,359.630 186.300,359.049 187.400 C 358.468 188.500,357.828 189.670,357.626 190.000 C 356.144 192.427,352.415 199.678,352.021 200.900 C 351.643 202.074,351.332 202.400,350.593 202.400 C 350.073 202.400,349.536 202.580,349.400 202.800 C 349.057 203.355,50.543 203.355,50.200 202.800 C 50.064 202.580,49.513 202.400,48.976 202.400 C 48.439 202.400,48.000 202.174,48.000 201.899 C 48.000 201.414,45.865 196.654,44.547 194.200 C 44.192 193.540,43.529 192.280,43.073 191.400 C 42.617 190.520,42.142 189.710,42.017 189.600 C 41.893 189.490,41.358 188.455,40.827 187.300 C 40.297 186.145,39.757 185.200,39.626 185.200 C 39.496 185.200,38.946 184.255,38.404 183.100 C 37.862 181.945,37.189 180.762,36.909 180.471 C 36.629 180.181,36.400 179.798,36.400 179.622 C 36.400 179.445,35.241 177.294,33.824 174.842 C 32.408 172.390,31.135 170.027,30.997 169.591 C 30.859 169.156,30.609 168.800,30.441 168.800 C 30.274 168.800,29.703 167.855,29.173 166.700 C 28.642 165.545,28.106 164.510,27.982 164.400 C 27.295 163.794,17.600 144.934,17.600 144.204 C 17.600 144.046,17.178 143.076,16.663 142.050 C 16.147 141.024,15.401 139.197,15.004 137.992 C 14.607 136.786,14.163 135.710,14.017 135.600 C 13.872 135.490,13.333 133.960,12.820 132.200 C 12.307 130.440,11.773 128.910,11.633 128.800 C 11.334 128.565,9.600 121.620,9.600 120.658 C 9.600 120.296,9.450 120.000,9.267 120.000 C 8.840 120.000,7.614 111.870,7.319 107.082 C 7.194 105.057,6.934 103.092,6.740 102.716 C 6.268 101.796,6.262 77.045,6.734 76.125 C 6.938 75.726,7.394 73.551,7.747 71.291 C 8.099 69.031,8.719 66.421,9.123 65.491 C 9.528 64.561,10.200 62.990,10.618 62.000 C 11.036 61.010,11.493 60.110,11.633 60.000 C 11.774 59.890,12.200 59.192,12.580 58.450 C 13.314 57.018,18.771 51.422,21.420 49.385 C 23.686 47.643,27.471 45.200,27.906 45.200 C 28.109 45.200,28.562 44.884,28.911 44.499 C 29.260 44.113,30.458 43.443,31.573 43.011 C 32.688 42.578,33.600 42.111,33.600 41.972 C 33.600 41.834,34.680 41.291,36.000 40.767 C 37.320 40.243,38.400 39.690,38.400 39.540 C 38.400 39.389,39.570 38.876,41.000 38.400 C 42.430 37.924,43.600 37.398,43.600 37.231 C 43.600 37.063,44.365 36.703,45.300 36.430 C 46.235 36.157,47.900 35.517,49.000 35.008 C 50.100 34.499,51.765 33.855,52.700 33.578 C 53.635 33.300,54.400 32.941,54.400 32.780 C 54.400 32.619,54.895 32.371,55.500 32.230 C 57.749 31.704,61.006 30.641,61.200 30.370 C 61.310 30.216,62.930 29.681,64.800 29.181 C 66.670 28.682,68.290 28.155,68.400 28.010 C 68.510 27.865,70.130 27.325,72.000 26.809 C 73.870 26.293,75.580 25.744,75.800 25.588 C 76.020 25.432,77.820 24.891,79.800 24.386 C 81.780 23.881,83.580 23.341,83.800 23.187 C 84.020 23.032,86.000 22.489,88.200 21.978 C 90.400 21.468,92.290 20.932,92.400 20.787 C 92.510 20.643,94.265 20.204,96.300 19.813 C 98.335 19.421,100.000 18.974,100.000 18.819 C 100.000 18.664,102.295 18.125,105.100 17.622 C 107.905 17.118,110.380 16.563,110.600 16.388 C 110.820 16.214,113.610 15.663,116.800 15.164 C 119.990 14.666,122.660 14.110,122.733 13.929 C 122.807 13.748,123.299 13.600,123.828 13.600 C 125.425 13.600,135.355 12.002,136.015 11.638 C 136.353 11.452,140.043 10.904,144.215 10.421 C 148.387 9.938,152.160 9.387,152.600 9.196 C 153.321 8.883,159.244 8.343,175.200 7.137 C 188.657 6.120,210.720 6.124,224.600 7.146 M346.800 212.376 C 346.800 213.683,346.645 214.848,346.456 214.965 C 346.267 215.082,345.999 215.997,345.862 216.999 C 345.725 218.000,345.085 219.883,344.440 221.182 C 343.796 222.481,343.053 224.592,342.791 225.872 C 342.528 227.153,342.162 228.388,341.976 228.618 C 341.790 228.847,341.252 230.827,340.780 233.018 C 340.307 235.208,339.780 237.180,339.608 237.400 C 339.437 237.620,338.893 239.690,338.400 242.000 C 337.907 244.310,337.364 246.380,337.193 246.600 C 337.022 246.820,336.485 248.980,336.000 251.400 C 335.515 253.820,334.974 255.980,334.797 256.200 C 334.620 256.420,334.069 258.670,333.570 261.200 C 333.072 263.730,332.544 265.890,332.397 266.000 C 332.249 266.110,331.809 267.820,331.418 269.800 C 331.027 271.780,330.463 274.120,330.163 275.000 C 329.863 275.880,329.336 278.220,328.991 280.200 C 328.647 282.180,328.198 284.160,327.993 284.600 C 327.574 285.501,326.000 293.276,326.000 294.443 C 326.000 294.859,325.850 295.200,325.667 295.200 C 325.484 295.200,324.916 297.675,324.405 300.700 C 323.893 303.725,323.357 306.290,323.213 306.400 C 323.070 306.510,322.547 309.030,322.051 312.000 C 321.555 314.970,320.991 317.760,320.798 318.200 C 320.604 318.640,320.065 321.430,319.600 324.400 C 319.135 327.370,318.593 330.160,318.396 330.600 C 318.199 331.040,317.750 333.470,317.397 336.000 C 317.044 338.530,316.597 340.894,316.404 341.253 C 316.210 341.613,315.671 344.673,315.206 348.053 C 314.741 351.434,314.205 354.486,314.017 354.836 C 313.828 355.185,313.262 358.605,312.760 362.436 C 312.257 366.266,311.728 369.490,311.584 369.600 C 311.440 369.710,310.920 373.220,310.430 377.400 C 309.939 381.580,309.382 385.360,309.193 385.800 C 309.003 386.240,308.464 390.380,307.995 395.000 C 307.525 399.620,306.984 403.760,306.792 404.200 C 306.600 404.640,306.148 408.150,305.787 412.000 C 305.426 415.850,304.973 419.360,304.781 419.800 C 304.589 420.240,304.051 424.560,303.585 429.400 C 303.118 434.240,302.581 438.560,302.390 439.000 C 302.199 439.440,301.661 443.760,301.195 448.600 C 300.728 453.440,300.191 457.760,300.000 458.200 C 299.810 458.640,299.275 462.870,298.811 467.600 C 298.346 472.330,297.809 476.560,297.615 477.000 C 297.422 477.440,296.875 481.400,296.400 485.800 C 295.925 490.200,295.382 494.160,295.193 494.600 C 295.005 495.040,294.563 497.650,294.211 500.400 C 293.593 505.228,292.131 512.294,291.626 512.889 C 291.492 513.049,289.405 513.491,286.991 513.872 C 284.576 514.254,282.510 514.681,282.400 514.823 C 282.181 515.103,272.343 516.242,266.600 516.652 C 264.620 516.793,262.820 517.041,262.600 517.201 C 262.380 517.362,260.130 517.608,257.600 517.749 C 255.070 517.889,249.490 518.196,245.200 518.430 C 237.955 518.827,206.660 519.657,199.400 519.646 C 179.798 519.616,136.000 517.926,136.000 517.200 C 136.000 517.045,134.245 516.797,132.100 516.649 C 126.029 516.231,117.085 515.197,116.200 514.812 C 115.760 514.621,113.736 514.176,111.703 513.825 C 105.825 512.808,106.178 513.198,105.579 507.057 C 105.297 504.165,104.947 501.710,104.801 501.600 C 104.655 501.490,104.114 496.990,103.600 491.600 C 103.086 486.210,102.549 481.710,102.409 481.600 C 102.268 481.490,101.750 477.080,101.257 471.800 C 100.765 466.520,100.205 461.840,100.012 461.400 C 99.820 460.960,99.279 456.460,98.810 451.400 C 98.341 446.340,97.802 441.840,97.613 441.400 C 97.424 440.960,96.882 436.550,96.410 431.600 C 95.938 426.650,95.394 422.240,95.203 421.800 C 95.011 421.360,94.561 417.940,94.203 414.200 C 93.845 410.460,93.398 407.040,93.209 406.600 C 93.021 406.160,92.479 402.110,92.006 397.600 C 91.532 393.090,90.990 389.040,90.801 388.600 C 90.612 388.160,90.077 384.560,89.613 380.600 C 89.148 376.640,88.605 373.040,88.407 372.600 C 88.208 372.160,87.671 368.830,87.214 365.200 C 86.756 361.570,86.218 358.240,86.018 357.800 C 85.818 357.360,85.276 354.210,84.815 350.800 C 84.353 347.390,83.809 344.240,83.606 343.800 C 83.403 343.360,82.850 340.390,82.376 337.200 C 81.903 334.010,81.380 331.130,81.214 330.800 C 81.049 330.470,80.589 328.130,80.193 325.600 C 79.798 323.070,79.363 320.910,79.227 320.800 C 79.091 320.690,78.548 317.990,78.022 314.800 C 77.496 311.610,76.950 308.910,76.808 308.800 C 76.667 308.690,76.136 306.170,75.628 303.200 C 75.120 300.230,74.572 297.620,74.411 297.400 C 74.250 297.180,73.707 294.750,73.205 292.000 C 72.704 289.250,72.172 286.910,72.024 286.800 C 71.876 286.690,71.343 284.350,70.840 281.600 C 70.337 278.850,69.784 276.420,69.613 276.200 C 69.441 275.980,68.991 274.090,68.613 272.000 C 68.236 269.910,67.780 268.020,67.601 267.800 C 67.422 267.580,66.869 265.330,66.370 262.800 C 65.872 260.270,65.343 258.110,65.193 258.000 C 65.044 257.890,64.501 255.730,63.986 253.200 C 63.471 250.670,62.939 248.510,62.802 248.400 C 62.666 248.290,62.140 246.321,61.633 244.024 C 61.127 241.728,60.563 239.568,60.381 239.224 C 60.198 238.881,59.579 236.710,59.005 234.400 C 58.431 232.090,57.580 228.670,57.115 226.800 C 56.649 224.930,56.161 223.310,56.030 223.200 C 55.695 222.918,54.000 218.681,54.000 218.126 C 54.000 217.873,53.821 217.607,53.602 217.533 C 53.384 217.460,53.087 215.735,52.943 213.700 L 52.680 210.000 199.740 210.000 L 346.800 210.000 346.800 212.376 M170.170 426.400 C 170.170 431.130,170.228 433.065,170.298 430.700 C 170.369 428.335,170.369 424.465,170.298 422.100 C 170.228 419.735,170.170 421.670,170.170 426.400 M188.000 426.400 C 188.000 431.020,188.135 434.800,188.300 434.800 C 188.465 434.800,188.600 431.020,188.600 426.400 C 188.600 421.780,188.465 418.000,188.300 418.000 C 188.135 418.000,188.000 421.780,188.000 426.400 M202.584 424.300 L 202.600 430.600 204.863 430.802 C 206.107 430.913,207.042 430.868,206.939 430.702 C 206.837 430.536,205.868 430.400,204.787 430.400 L 202.820 430.400 202.694 424.200 L 202.569 417.999 202.584 424.300 M243.859 420.200 C 243.999 421.300,244.177 422.275,244.256 422.367 C 244.599 422.764,244.350 419.341,243.997 418.800 C 243.730 418.390,243.686 418.835,243.859 420.200 M160.174 421.557 C 160.324 421.801,160.761 422.000,161.144 422.000 C 161.527 422.000,162.057 422.179,162.321 422.399 C 162.627 422.652,162.620 422.595,162.301 422.242 C 161.660 421.531,159.785 420.928,160.174 421.557 M239.100 421.882 C 239.595 421.978,240.405 421.978,240.900 421.882 C 241.395 421.787,240.990 421.709,240.000 421.709 C 239.010 421.709,238.605 421.787,239.100 421.882 M224.961 422.937 C 225.358 423.740,225.419 424.436,225.169 425.310 C 224.955 426.054,224.959 426.398,225.179 426.173 C 226.029 425.303,226.050 423.750,225.224 422.775 L 224.399 421.800 224.961 422.937 M238.384 423.380 C 238.876 423.974,240.400 424.480,240.400 424.050 C 240.400 423.899,239.847 423.567,239.171 423.311 C 238.155 422.928,238.018 422.940,238.384 423.380 M233.009 426.079 C 233.216 426.619,234.783 427.767,234.986 427.528 C 235.046 427.457,234.579 426.982,233.949 426.471 C 233.318 425.959,232.895 425.783,233.009 426.079 M238.562 429.142 C 239.409 430.095,239.600 430.182,239.600 429.614 C 239.600 429.402,239.195 429.016,238.700 428.756 C 237.805 428.286,237.804 428.288,238.562 429.142 M159.720 432.800 C 159.720 434.010,159.795 434.505,159.887 433.900 C 159.978 433.295,159.978 432.305,159.887 431.700 C 159.795 431.095,159.720 431.590,159.720 432.800 M236.900 435.076 C 237.285 435.176,237.915 435.176,238.300 435.076 C 238.685 434.975,238.370 434.893,237.600 434.893 C 236.830 434.893,236.515 434.975,236.900 435.076 M187.800 447.200 C 187.664 447.420,187.923 447.600,188.376 447.600 C 188.829 447.600,189.200 447.420,189.200 447.200 C 189.200 446.980,188.941 446.800,188.624 446.800 C 188.307 446.800,187.936 446.980,187.800 447.200 M214.600 447.200 C 214.464 447.420,214.723 447.600,215.176 447.600 C 215.629 447.600,216.000 447.420,216.000 447.200 C 216.000 446.980,215.741 446.800,215.424 446.800 C 215.107 446.800,214.736 446.980,214.600 447.200 M233.400 447.200 C 233.264 447.420,233.534 447.600,234.000 447.600 C 234.466 447.600,234.736 447.420,234.600 447.200 C 234.464 446.980,234.194 446.800,234.000 446.800 C 233.806 446.800,233.536 446.980,233.400 447.200 M176.864 451.076 C 176.829 453.098,176.935 454.837,177.100 454.939 C 177.265 455.042,177.350 453.928,177.290 452.463 C 177.097 447.823,176.930 447.279,176.864 451.076 M209.387 449.400 C 209.284 449.730,209.112 450.279,209.005 450.621 C 208.897 450.962,208.966 451.145,209.157 451.027 C 209.348 450.909,209.591 450.359,209.697 449.806 C 209.906 448.713,209.690 448.430,209.387 449.400 M218.400 453.176 C 218.400 455.592,218.560 457.200,218.800 457.200 C 219.038 457.200,219.200 455.675,219.200 453.424 C 219.200 451.337,219.021 449.537,218.800 449.400 C 218.543 449.241,218.400 450.596,218.400 453.176 M224.937 452.200 C 224.939 453.960,225.009 454.630,225.093 453.689 C 225.178 452.749,225.177 451.309,225.091 450.489 C 225.005 449.670,224.936 450.440,224.937 452.200 M235.439 450.157 C 235.621 450.633,235.230 450.786,233.534 450.904 L 231.400 451.052 233.700 451.126 C 235.917 451.197,236.832 450.562,235.605 449.803 C 235.381 449.665,235.309 449.819,235.439 450.157 M186.400 450.900 C 186.400 451.065,187.420 451.200,188.667 451.200 C 189.913 451.200,190.821 451.088,190.685 450.951 C 190.324 450.591,186.399 450.544,186.400 450.900 M192.400 452.000 C 192.400 452.728,192.133 452.800,189.424 452.800 C 186.091 452.800,185.634 453.092,186.826 454.458 L 187.647 455.400 186.978 454.300 L 186.308 453.200 189.554 453.200 C 192.750 453.200,192.800 453.185,192.800 452.200 C 192.800 451.650,192.710 451.200,192.600 451.200 C 192.490 451.200,192.400 451.560,192.400 452.000 M231.599 453.100 C 231.599 453.265,232.724 453.350,234.099 453.288 C 238.350 453.098,238.760 452.923,235.100 452.860 C 233.175 452.827,231.600 452.935,231.599 453.100 M204.306 454.618 C 204.410 455.165,204.628 455.694,204.790 455.794 C 204.952 455.894,204.999 455.529,204.894 454.982 C 204.790 454.435,204.572 453.906,204.410 453.806 C 204.248 453.706,204.201 454.071,204.306 454.618 M189.606 466.300 C 189.610 466.750,189.717 466.836,189.906 466.540 C 190.068 466.288,190.650 465.997,191.200 465.895 C 192.047 465.737,192.001 465.701,190.900 465.654 C 189.906 465.613,189.601 465.765,189.606 466.300 M198.977 469.767 C 198.550 470.079,198.291 470.424,198.401 470.533 C 198.510 470.642,199.025 470.387,199.544 469.966 C 200.631 469.085,200.143 468.915,198.977 469.767 M171.394 469.901 C 172.559 472.193,172.795 472.537,172.798 471.944 C 172.799 471.584,172.426 470.864,171.970 470.344 C 171.513 469.825,171.254 469.626,171.394 469.901 M220.875 470.687 C 220.394 471.285,220.000 471.950,220.000 472.165 C 220.000 472.380,220.450 471.945,221.000 471.200 C 221.550 470.455,222.000 469.790,222.000 469.722 C 222.000 469.411,221.681 469.684,220.875 470.687 M230.154 474.400 C 230.154 477.150,230.218 478.275,230.296 476.900 C 230.374 475.525,230.374 473.275,230.296 471.900 C 230.218 470.525,230.154 471.650,230.154 474.400 M197.467 472.267 C 197.101 472.632,197.129 475.509,197.500 475.738 C 197.665 475.840,197.800 475.041,197.800 473.962 C 197.800 472.883,197.785 472.000,197.767 472.000 C 197.748 472.000,197.613 472.120,197.467 472.267 M164.998 474.802 C 164.598 475.244,164.366 475.699,164.482 475.815 C 164.597 475.930,164.990 475.569,165.355 475.012 C 166.152 473.796,165.993 473.702,164.998 474.802 M130.601 528.817 C 133.676 531.245,259.848 531.244,268.800 528.816 C 269.570 528.607,271.764 528.359,273.675 528.264 L 277.151 528.092 276.200 529.546 C 275.677 530.346,275.128 531.495,274.981 532.100 C 274.834 532.705,274.573 533.200,274.400 533.200 C 274.228 533.200,273.689 534.685,273.202 536.500 C 272.715 538.315,272.154 540.000,271.956 540.244 C 271.757 540.488,271.194 543.098,270.703 546.044 C 270.212 548.990,269.699 551.490,269.563 551.600 C 269.427 551.710,269.008 554.680,268.633 558.200 C 268.259 561.720,267.779 565.320,267.568 566.200 C 266.882 569.065,266.000 591.035,266.000 605.283 L 266.000 619.200 262.700 619.211 C 260.885 619.217,257.690 619.398,255.600 619.613 C 234.915 621.744,164.873 621.742,144.000 619.610 C 141.910 619.396,138.715 619.217,136.900 619.211 L 133.600 619.200 133.600 611.800 L 133.600 604.400 136.100 604.409 C 137.475 604.413,143.820 604.680,150.200 605.002 C 156.580 605.323,163.454 605.589,165.476 605.593 C 167.498 605.597,169.264 605.780,169.400 606.000 C 169.559 606.257,176.337 606.400,188.424 606.400 L 207.200 606.400 207.200 604.043 C 207.200 600.909,208.767 601.148,185.800 600.780 C 174.800 600.603,163.280 600.355,160.200 600.228 C 148.173 599.733,138.583 599.089,138.220 598.752 C 138.011 598.559,136.886 598.400,135.720 598.400 L 133.600 598.400 133.600 591.940 L 133.600 585.479 138.900 585.722 C 141.815 585.856,149.690 586.170,156.400 586.420 C 163.110 586.670,169.013 587.038,169.519 587.237 C 170.024 587.437,178.709 587.600,188.819 587.600 L 207.200 587.600 207.200 585.219 L 207.200 582.838 205.700 582.421 C 204.844 582.183,199.737 581.999,193.800 581.991 C 188.080 581.984,179.080 581.808,173.800 581.601 C 168.520 581.394,158.710 581.027,152.000 580.785 C 145.290 580.544,139.629 580.178,139.420 579.973 C 139.211 579.768,137.636 579.600,135.920 579.600 L 132.800 579.600 132.800 575.824 C 132.800 573.737,132.621 571.937,132.400 571.800 C 132.180 571.664,132.000 570.303,132.000 568.776 L 132.000 566.000 133.920 566.000 C 134.976 566.000,136.011 566.160,136.220 566.356 C 136.429 566.552,140.740 566.927,145.800 567.190 C 150.860 567.453,158.420 567.851,162.600 568.075 C 166.780 568.299,178.480 568.509,188.600 568.541 L 207.000 568.600 207.117 565.963 L 207.234 563.325 202.117 563.064 C 199.303 562.921,191.870 562.804,185.600 562.805 C 172.353 562.808,150.963 562.087,149.800 561.598 C 149.360 561.414,146.660 561.160,143.800 561.034 C 140.940 560.909,136.951 560.689,134.935 560.546 L 131.270 560.285 130.994 557.543 C 130.843 556.034,130.578 554.800,130.406 554.800 C 130.235 554.800,129.972 553.405,129.822 551.700 C 129.672 549.995,129.459 548.285,129.348 547.900 C 129.130 547.144,133.376 546.794,133.667 547.544 C 133.959 548.300,171.604 549.569,194.300 549.589 L 207.200 549.600 207.200 547.061 L 207.200 544.523 202.337 544.261 C 199.663 544.118,192.508 544.003,186.437 544.007 C 173.327 544.015,148.400 543.171,148.400 542.718 C 148.400 542.543,147.185 542.402,145.700 542.405 C 144.215 542.408,139.561 542.199,135.359 541.942 L 127.718 541.474 126.806 537.937 C 126.304 535.992,125.771 534.400,125.620 534.400 C 125.469 534.400,125.042 533.437,124.671 532.259 C 124.300 531.082,123.637 529.704,123.198 529.198 C 122.759 528.692,122.400 528.240,122.400 528.195 C 122.400 527.952,130.262 528.549,130.601 528.817 M200.400 658.107 C 215.030 658.106,228.305 657.973,229.900 657.812 C 233.731 657.425,233.777 657.339,226.544 664.021 C 219.134 670.865,217.901 671.739,214.434 672.605 C 212.985 672.967,210.990 673.474,210.000 673.731 C 208.901 674.018,204.929 674.200,199.800 674.200 C 194.671 674.200,190.699 674.018,189.600 673.731 C 188.610 673.474,186.575 672.956,185.078 672.581 C 183.581 672.206,182.136 671.697,181.866 671.450 C 181.596 671.202,180.905 670.730,180.329 670.400 C 179.333 669.829,175.126 666.050,169.000 660.223 L 166.200 657.559 170.000 657.835 C 172.090 657.986,185.770 658.109,200.400 658.107 " stroke="none" fill="#040404" fill-rule="evenodd"></path><path id="path2" d="M156.900 417.889 L 154.400 418.038 154.400 426.419 L 154.400 434.800 157.000 434.800 L 159.600 434.800 159.600 432.800 L 159.600 430.800 161.023 430.800 C 166.080 430.800,168.600 428.606,168.600 424.204 C 168.600 418.961,165.644 417.366,156.900 417.889 M219.300 417.889 L 216.800 418.038 216.800 426.419 L 216.800 434.800 219.357 434.800 C 222.174 434.800,222.400 434.605,222.400 432.167 C 222.400 430.849,222.455 430.800,223.929 430.800 C 228.461 430.800,231.200 428.295,231.200 424.150 C 231.200 419.137,227.855 417.377,219.300 417.889 M236.119 418.042 C 230.421 419.390,230.887 425.876,236.837 428.046 C 241.941 429.907,239.251 431.886,233.686 430.364 C 231.608 429.796,231.449 429.923,231.780 431.881 C 232.214 434.452,232.420 434.586,236.201 434.742 C 240.832 434.933,242.147 434.626,243.806 432.967 C 246.719 430.055,245.353 425.958,241.000 424.552 C 238.635 423.788,237.798 423.103,238.140 422.211 C 238.407 421.516,242.229 421.399,242.645 422.072 C 242.756 422.253,243.132 422.400,243.479 422.400 C 244.033 422.400,244.062 418.727,243.512 418.180 C 243.145 417.814,237.525 417.709,236.119 418.042 M170.400 426.419 L 170.400 434.838 172.900 434.719 L 175.400 434.600 175.517 431.500 L 175.634 428.400 177.800 428.400 L 179.966 428.400 180.083 431.500 L 180.200 434.600 182.800 434.600 L 185.400 434.600 185.508 426.300 L 185.616 418.000 182.808 418.000 L 180.000 418.000 180.000 421.200 L 180.000 424.400 177.800 424.400 L 175.600 424.400 175.600 421.200 L 175.600 418.000 173.000 418.000 L 170.400 418.000 170.400 426.419 M188.579 418.512 C 188.470 418.793,188.431 422.528,188.491 426.812 L 188.600 434.600 191.200 434.600 L 193.800 434.600 193.908 426.300 L 194.016 418.000 191.396 418.000 C 189.636 418.000,188.710 418.168,188.579 418.512 M196.979 418.512 C 196.870 418.793,196.831 422.528,196.891 426.812 L 197.000 434.600 201.537 434.600 L 206.074 434.600 206.623 433.005 C 207.291 431.061,207.131 430.881,204.600 430.724 L 202.600 430.600 202.490 424.300 L 202.380 418.000 199.777 418.000 C 198.032 418.000,197.110 418.169,196.979 418.512 M208.179 418.512 C 208.070 418.793,208.031 422.528,208.091 426.812 L 208.200 434.600 210.800 434.600 L 213.400 434.600 213.508 426.300 L 213.616 418.000 210.996 418.000 C 209.236 418.000,208.310 418.168,208.179 418.512 M162.339 422.116 C 164.406 423.831,163.325 427.179,160.700 427.194 L 159.600 427.200 159.600 424.157 L 159.600 421.113 160.698 421.389 C 161.302 421.540,162.040 421.867,162.339 422.116 M224.008 421.804 C 226.683 423.188,226.185 427.200,223.338 427.200 C 222.437 427.200,222.400 427.080,222.400 424.200 C 222.400 420.891,222.359 420.952,224.008 421.804 M162.199 444.874 C 162.073 445.383,162.022 448.320,162.085 451.400 L 162.200 457.000 163.200 457.000 C 164.164 457.000,164.204 456.895,164.318 454.100 L 164.435 451.200 167.418 451.200 L 170.400 451.200 170.400 454.200 C 170.400 457.199,171.399 458.544,172.157 456.567 C 172.473 455.743,172.473 445.457,172.157 444.633 C 171.454 442.800,170.400 443.980,170.400 446.600 L 170.400 449.200 167.419 449.200 L 164.438 449.200 164.319 446.700 C 164.188 443.953,162.736 442.703,162.199 444.874 M210.890 450.500 C 210.998 456.898,211.014 457.002,211.900 457.128 C 212.768 457.251,212.800 457.143,212.800 454.117 C 212.800 450.275,213.421 449.091,215.338 449.278 L 216.600 449.400 216.714 453.300 C 216.819 456.870,216.895 457.200,217.614 457.200 C 218.347 457.200,218.400 456.906,218.400 452.814 C 218.400 447.719,218.150 447.369,214.742 447.696 L 212.800 447.883 212.800 445.941 C 212.800 444.132,212.731 444.000,211.790 444.000 L 210.780 444.000 210.890 450.500 M220.636 444.650 C 220.297 445.534,221.324 446.591,222.197 446.256 C 222.603 446.101,222.807 445.657,222.728 445.102 C 222.569 443.979,221.022 443.644,220.636 444.650 M225.371 445.041 C 225.135 445.139,225.020 445.755,225.116 446.410 C 225.263 447.410,225.156 447.600,224.445 447.600 C 223.344 447.600,223.327 448.803,224.424 449.090 C 225.175 449.287,225.241 449.577,225.167 452.373 C 225.056 456.556,226.662 458.808,228.605 457.196 C 229.477 456.472,229.331 455.674,228.300 455.528 C 226.971 455.339,226.681 449.429,227.984 449.088 C 229.045 448.811,229.058 447.600,228.000 447.600 C 227.384 447.600,227.200 447.333,227.200 446.443 C 227.200 445.530,226.411 444.576,225.867 444.832 C 225.830 444.849,225.607 444.943,225.371 445.041 M174.800 451.530 C 174.800 456.386,177.183 459.057,179.473 456.767 C 179.783 456.457,180.130 456.475,180.700 456.830 C 182.461 457.930,182.800 457.185,182.800 452.213 L 182.800 447.600 181.600 447.600 L 180.400 447.600 180.400 450.771 C 180.400 454.330,179.859 455.331,178.050 455.122 C 177.011 455.001,176.999 454.962,176.885 451.300 C 176.772 447.666,176.752 447.600,175.785 447.600 C 174.805 447.600,174.800 447.621,174.800 451.530 M185.485 448.557 C 181.663 452.098,186.596 460.142,190.533 456.791 C 192.143 455.421,192.400 455.114,192.400 454.559 C 192.400 453.601,191.233 453.440,190.488 454.295 C 189.294 455.667,188.138 455.775,186.985 454.621 C 185.527 453.164,186.024 452.800,189.476 452.800 L 192.504 452.800 192.292 450.916 C 191.921 447.625,187.968 446.255,185.485 448.557 M197.405 447.992 C 197.272 448.207,197.326 448.702,197.525 449.092 C 197.724 449.481,198.200 451.154,198.582 452.808 C 199.826 458.196,201.167 458.659,202.621 454.200 C 203.317 452.068,203.599 451.591,203.804 452.200 C 203.951 452.640,204.223 453.360,204.407 453.800 C 204.591 454.240,204.905 455.140,205.104 455.800 C 205.934 458.547,207.282 457.455,208.400 453.132 C 208.950 451.005,209.535 449.130,209.700 448.965 C 209.865 448.801,210.000 448.427,210.000 448.133 C 210.000 447.454,208.025 447.424,207.833 448.100 C 207.755 448.375,207.364 449.753,206.964 451.161 L 206.236 453.723 205.584 451.047 C 205.225 449.576,204.743 448.183,204.512 447.952 C 203.822 447.262,202.208 447.701,202.133 448.600 C 202.095 449.040,201.810 450.210,201.498 451.200 L 200.931 453.000 200.265 451.451 C 199.899 450.599,199.600 449.669,199.600 449.384 C 199.600 447.867,198.078 446.902,197.405 447.992 M220.590 448.500 C 219.896 451.280,220.575 457.000,221.600 457.000 L 222.600 457.000 222.713 452.300 L 222.825 447.600 221.820 447.600 C 221.111 447.600,220.749 447.865,220.590 448.500 M231.891 447.936 C 230.313 448.560,228.519 454.400,229.905 454.400 C 230.073 454.400,230.388 454.798,230.605 455.284 C 231.159 456.526,233.393 457.739,234.577 457.442 C 235.826 457.128,238.000 455.293,238.000 454.552 C 238.000 453.476,236.806 453.477,235.808 454.553 C 234.600 455.857,233.836 455.873,232.582 454.618 C 230.999 453.035,231.312 452.800,235.000 452.800 C 238.815 452.800,238.998 452.607,237.834 449.819 C 236.990 447.799,234.352 446.964,231.891 447.936 M190.163 450.200 L 190.818 451.200 188.609 451.200 C 186.244 451.200,186.181 451.157,186.814 449.974 C 187.429 448.824,189.347 448.954,190.163 450.200 M235.520 449.680 C 236.571 450.731,236.044 451.200,233.813 451.200 C 231.898 451.200,231.657 451.113,231.883 450.500 C 232.373 449.174,234.528 448.688,235.520 449.680 M189.843 466.633 C 189.709 466.981,189.600 467.750,189.600 468.343 C 189.600 469.358,189.507 469.412,188.010 469.270 C 185.392 469.020,184.000 470.731,184.000 474.200 C 184.000 478.092,185.190 479.242,189.069 479.100 L 191.800 479.000 191.910 472.500 L 192.020 466.000 191.053 466.000 C 190.521 466.000,189.976 466.285,189.843 466.633 M216.800 472.600 C 216.800 478.933,216.832 479.200,217.600 479.200 C 218.368 479.200,218.400 478.933,218.400 472.600 C 218.400 466.267,218.368 466.000,217.600 466.000 C 216.832 466.000,216.800 466.267,216.800 472.600 M166.800 469.480 C 165.909 469.802,164.854 471.274,165.084 471.875 C 165.359 472.592,166.589 472.537,167.217 471.780 C 167.976 470.865,170.200 471.165,170.200 472.182 C 170.200 472.782,169.706 473.107,168.067 473.582 C 165.577 474.304,163.968 475.997,164.808 477.010 C 165.078 477.335,165.141 477.606,164.949 477.613 C 164.757 477.621,165.025 477.981,165.544 478.413 C 166.664 479.346,168.685 479.436,169.870 478.606 C 170.621 478.080,170.745 478.080,170.947 478.606 C 171.072 478.933,171.624 479.200,172.172 479.200 C 173.209 479.200,173.311 477.491,172.570 472.549 C 172.177 469.932,169.496 468.506,166.800 469.480 M174.800 474.200 C 174.800 478.933,174.843 479.200,175.600 479.200 C 176.337 479.200,176.400 478.933,176.400 475.809 C 176.400 472.099,177.120 470.963,179.277 471.269 C 180.160 471.394,180.205 471.570,180.314 475.300 C 180.427 479.147,180.442 479.200,181.414 479.200 C 182.900 479.200,182.951 471.457,181.474 470.070 C 180.459 469.116,178.822 468.946,177.493 469.657 C 176.852 470.001,176.600 470.001,176.486 469.657 C 176.402 469.406,175.988 469.200,175.567 469.200 C 174.852 469.200,174.800 469.539,174.800 474.200 M199.265 470.207 C 196.129 472.846,197.937 479.200,201.823 479.200 C 203.480 479.200,205.600 477.509,205.600 476.188 C 205.600 474.566,203.892 474.450,203.388 476.037 C 202.586 478.566,199.600 477.143,199.600 474.233 C 199.600 471.503,201.787 470.218,203.400 472.000 C 204.361 473.062,205.600 473.051,205.600 471.982 C 205.600 469.430,201.540 468.292,199.265 470.207 M208.918 469.585 C 208.433 469.792,207.668 470.682,207.218 471.564 C 204.560 476.775,209.891 481.789,213.865 477.815 C 217.533 474.147,213.595 467.594,208.918 469.585 M222.739 469.468 C 221.269 469.858,219.883 472.645,220.090 474.796 C 220.709 481.240,229.187 480.421,228.720 473.963 C 228.454 470.285,226.159 468.561,222.739 469.468 M230.400 474.200 C 230.400 478.933,230.443 479.200,231.200 479.200 C 231.924 479.200,232.000 478.933,232.000 476.400 C 232.000 474.860,232.013 473.465,232.029 473.300 C 232.095 472.605,233.390 471.600,234.219 471.600 C 235.333 471.600,235.827 470.456,235.049 469.678 C 234.590 469.219,234.211 469.188,233.235 469.528 C 232.493 469.787,232.000 469.807,232.000 469.579 C 232.000 469.371,231.640 469.200,231.200 469.200 C 230.443 469.200,230.400 469.467,230.400 474.200 M189.251 471.862 C 189.930 472.680,189.905 475.750,189.213 476.584 C 187.903 478.163,185.600 476.535,185.600 474.030 C 185.600 471.868,188.050 470.414,189.251 471.862 M212.577 472.089 C 213.915 473.998,212.912 477.200,210.977 477.200 C 209.339 477.200,208.271 475.776,208.520 473.922 C 208.863 471.364,211.299 470.264,212.577 472.089 M226.177 472.089 C 227.576 474.086,226.509 477.200,224.426 477.200 C 222.900 477.200,222.200 476.227,222.200 474.106 C 222.200 471.390,224.773 470.084,226.177 472.089 M169.773 476.430 C 168.997 477.288,166.796 477.488,166.806 476.700 C 166.813 476.178,167.583 474.790,167.594 475.281 C 167.597 475.435,168.185 475.313,168.900 475.011 C 170.468 474.346,170.950 475.130,169.773 476.430 M167.800 659.200 C 168.659 660.080,169.452 660.800,169.562 660.800 C 169.672 660.800,169.059 660.080,168.200 659.200 C 167.341 658.320,166.548 657.600,166.438 657.600 C 166.328 657.600,166.941 658.320,167.800 659.200 M231.225 659.369 L 229.850 661.000 231.405 659.513 C 232.260 658.696,232.879 657.962,232.780 657.883 C 232.681 657.803,231.981 658.472,231.225 659.369 M189.107 658.290 C 189.826 658.379,190.906 658.377,191.507 658.286 C 192.108 658.195,191.520 658.122,190.200 658.124 C 188.880 658.126,188.388 658.201,189.107 658.290 M208.500 658.287 C 209.105 658.378,210.095 658.378,210.700 658.287 C 211.305 658.195,210.810 658.120,209.600 658.120 C 208.390 658.120,207.895 658.195,208.500 658.287 M226.000 664.200 C 225.028 665.190,224.323 666.000,224.433 666.000 C 224.543 666.000,225.428 665.190,226.400 664.200 C 227.372 663.210,228.077 662.400,227.967 662.400 C 227.857 662.400,226.972 663.210,226.000 664.200 M173.600 664.600 C 174.346 665.370,175.047 666.000,175.157 666.000 C 175.267 666.000,174.746 665.370,174.000 664.600 C 173.254 663.830,172.553 663.200,172.443 663.200 C 172.333 663.200,172.854 663.830,173.600 664.600 M221.785 668.100 L 219.800 670.200 221.900 668.215 C 223.055 667.123,224.000 666.178,224.000 666.115 C 224.000 665.817,223.629 666.149,221.785 668.100 M190.700 673.882 C 191.195 673.978,192.005 673.978,192.500 673.882 C 192.995 673.787,192.590 673.709,191.600 673.709 C 190.610 673.709,190.205 673.787,190.700 673.882 M207.505 673.883 C 208.002 673.979,208.722 673.975,209.105 673.875 C 209.487 673.775,209.080 673.696,208.200 673.701 C 207.320 673.705,207.007 673.787,207.505 673.883 M194.500 674.287 C 195.105 674.378,196.095 674.378,196.700 674.287 C 197.305 674.195,196.810 674.120,195.600 674.120 C 194.390 674.120,193.895 674.195,194.500 674.287 M203.300 674.287 C 203.905 674.378,204.895 674.378,205.500 674.287 C 206.105 674.195,205.610 674.120,204.400 674.120 C 203.190 674.120,202.695 674.195,203.300 674.287 " stroke="none" fill="#241c22" fill-rule="evenodd"></path><path id="path3" d="M167.600 658.595 C 168.150 659.193,170.400 661.304,172.600 663.286 L 176.600 666.891 172.239 662.720 L 167.879 658.548 199.748 658.548 L 231.618 658.548 230.116 660.174 C 228.892 661.499,228.979 661.451,230.588 659.914 C 231.673 658.877,232.480 657.974,232.381 657.907 C 232.281 657.841,226.350 657.924,219.200 658.092 C 206.024 658.402,171.134 658.160,168.200 657.739 L 166.600 657.509 167.600 658.595 M225.600 664.200 C 224.628 665.190,223.923 666.000,224.033 666.000 C 224.143 666.000,225.028 665.190,226.000 664.200 C 226.972 663.210,227.677 662.400,227.567 662.400 C 227.457 662.400,226.572 663.210,225.600 664.200 M220.400 668.881 C 219.190 670.006,218.740 670.555,219.400 670.100 C 220.539 669.315,223.146 666.780,222.775 666.818 C 222.679 666.828,221.610 667.757,220.400 668.881 M178.173 668.500 C 179.028 669.215,180.284 670.127,180.964 670.527 C 182.158 671.229,182.167 671.229,181.204 670.527 C 180.656 670.127,179.554 669.215,178.755 668.500 C 177.956 667.785,177.149 667.200,176.960 667.200 C 176.772 667.200,177.317 667.785,178.173 668.500 M183.200 671.769 C 183.750 672.064,184.830 672.416,185.600 672.551 C 186.574 672.723,186.330 672.558,184.800 672.010 C 182.227 671.089,181.819 671.027,183.200 671.769 M214.400 672.200 C 213.630 672.497,213.270 672.745,213.600 672.752 C 213.930 672.758,214.740 672.517,215.400 672.214 C 216.945 671.507,216.226 671.497,214.400 672.200 M193.900 673.882 C 194.395 673.978,195.205 673.978,195.700 673.882 C 196.195 673.787,195.790 673.709,194.800 673.709 C 193.810 673.709,193.405 673.787,193.900 673.882 M204.300 673.882 C 204.795 673.978,205.605 673.978,206.100 673.882 C 206.595 673.787,206.190 673.709,205.200 673.709 C 204.210 673.709,203.805 673.787,204.300 673.882 M198.700 674.289 C 199.415 674.378,200.585 674.378,201.300 674.289 C 202.015 674.201,201.430 674.128,200.000 674.128 C 198.570 674.128,197.985 674.201,198.700 674.289 " stroke="none" fill="#747474" fill-rule="evenodd"></path></g></svg>